<mxfile host="65bd71144e">
    <diagram id="rRcpy6MbdcSQjNtFdj0c" name="Page-1">
        <mxGraphModel dx="4692" dy="1940" grid="1" gridSize="10" guides="1" tooltips="1" connect="1" arrows="1" fold="1" page="1" pageScale="1" pageWidth="850" pageHeight="1100" math="0" shadow="0">
            <root>
                <mxCell id="0"/>
                <mxCell id="1" parent="0"/>
                <mxCell id="10" style="edgeStyle=none;html=1;" edge="1" parent="1" source="4" target="5">
                    <mxGeometry relative="1" as="geometry"/>
                </mxCell>
                <mxCell id="4" value="" style="dashed=0;outlineConnect=0;html=1;align=center;labelPosition=center;verticalLabelPosition=bottom;verticalAlign=top;shape=mxgraph.weblogos.twitter;fillColor=#1DA1F2;strokeColor=none" vertex="1" parent="1">
                    <mxGeometry x="-1640" y="380" width="80" height="70" as="geometry"/>
                </mxCell>
                <mxCell id="11" style="edgeStyle=none;html=1;" edge="1" parent="1" source="5" target="7">
                    <mxGeometry relative="1" as="geometry"/>
                </mxCell>
                <mxCell id="5" value="" style="outlineConnect=0;dashed=0;verticalLabelPosition=bottom;verticalAlign=top;align=center;html=1;shape=mxgraph.aws3.kinesis_streams;fillColor=#F58534;gradientColor=none;" vertex="1" parent="1">
                    <mxGeometry x="-1420" y="383.5" width="60" height="63" as="geometry"/>
                </mxCell>
                <mxCell id="20" style="edgeStyle=none;html=1;entryX=0.5;entryY=0;entryDx=0;entryDy=0;entryPerimeter=0;" edge="1" parent="1" source="7" target="15">
                    <mxGeometry relative="1" as="geometry"/>
                </mxCell>
                <mxCell id="7" value="" style="sketch=0;pointerEvents=1;shadow=0;dashed=0;html=1;strokeColor=none;fillColor=#005F4B;labelPosition=center;verticalLabelPosition=bottom;verticalAlign=top;align=center;outlineConnect=0;shape=mxgraph.veeam2.server_cluster;" vertex="1" parent="1">
                    <mxGeometry x="-1240" y="380" width="80" height="70" as="geometry"/>
                </mxCell>
                <mxCell id="12" value="spark streaming&amp;nbsp;&lt;br&gt;processing" style="text;html=1;align=center;verticalAlign=middle;resizable=0;points=[];autosize=1;strokeColor=none;fillColor=none;" vertex="1" parent="1">
                    <mxGeometry x="-1250" y="310" width="100" height="30" as="geometry"/>
                </mxCell>
                <mxCell id="13" value="Karfka&amp;nbsp;" style="text;html=1;align=center;verticalAlign=middle;resizable=0;points=[];autosize=1;strokeColor=none;fillColor=none;" vertex="1" parent="1">
                    <mxGeometry x="-1415" y="460" width="50" height="20" as="geometry"/>
                </mxCell>
                <mxCell id="14" value="karfka twitter connect" style="text;html=1;align=center;verticalAlign=middle;resizable=0;points=[];autosize=1;strokeColor=none;fillColor=none;" vertex="1" parent="1">
                    <mxGeometry x="-1685" y="460" width="130" height="20" as="geometry"/>
                </mxCell>
                <mxCell id="19" style="edgeStyle=none;html=1;" edge="1" parent="1" source="15" target="16">
                    <mxGeometry relative="1" as="geometry"/>
                </mxCell>
                <mxCell id="15" value="" style="outlineConnect=0;dashed=0;verticalLabelPosition=bottom;verticalAlign=top;align=center;html=1;shape=mxgraph.aws3.elasticsearch_service;fillColor=#F58534;gradientColor=none;" vertex="1" parent="1">
                    <mxGeometry x="-1231.07" y="580" width="67.5" height="81" as="geometry"/>
                </mxCell>
                <mxCell id="16" value="" style="sketch=0;aspect=fixed;html=1;points=[];align=center;image;fontSize=12;image=img/lib/mscae/Shared_Dashboard.svg;" vertex="1" parent="1">
                    <mxGeometry x="-1240" y="730" width="85.37" height="70" as="geometry"/>
                </mxCell>
                <mxCell id="17" value="Dashboard" style="text;html=1;align=center;verticalAlign=middle;resizable=0;points=[];autosize=1;strokeColor=none;fillColor=none;" vertex="1" parent="1">
                    <mxGeometry x="-1225" y="840" width="70" height="20" as="geometry"/>
                </mxCell>
                <mxCell id="18" value="Elastic search" style="text;html=1;align=center;verticalAlign=middle;resizable=0;points=[];autosize=1;strokeColor=none;fillColor=none;" vertex="1" parent="1">
                    <mxGeometry x="-1160" y="610.5" width="90" height="20" as="geometry"/>
                </mxCell>
            </root>
        </mxGraphModel>
    </diagram>
</mxfile>